<?xml version="1.0" encoding="UTF-8"?><svg id="Layer_1" xmlns="http://www.w3.org/2000/svg" viewBox="0 0 554.44 735.65"><defs><style>.cls-1{fill:#666;}</style></defs><path class="cls-1" d="m503.57,423.67l-161.02-47.47v-101.32h-50.75v460.28l50.75-30.21v-275.84l156.46,46.13c-5.85,27.9-17.49,53.04-35.76,78.05-3.47,4.76-7.45,9.62-12.53,15.33l-39.11,43.98h67.92l9.12-10.25c6.1-6.85,11.19-13.12,15.58-19.12,34.18-46.78,50.09-95.93,50.09-154.69v-199.34h-50.75v194.47Z"/><polygon class="cls-1" points="52.01 188.99 277.85 74.95 329.37 100.95 329.37 44.11 277.85 18.1 1.26 157.76 1.26 211.43 52.01 211.43 52.01 188.99"/><polygon class="cls-1" points="401.76 80.67 401.76 15.31 365.56 0 365.56 62.39 365.56 118.34 365.56 119.23 503.69 188.99 503.69 211.43 554.44 211.43 554.44 157.76 401.76 80.67"/><path class="cls-1" d="m334.93,254.4c0-47.38-59.22-59.22-59.22-59.22h-74.03l-7.96,7.96c-4.38,4.38-10.33,6.84-16.52,6.84h-5.13v-4.84c0-6.51-5.28-11.8-11.8-11.8h-23.78c-6.52,0-11.8,5.28-11.8,11.8v55.43c0,6.51,5.28,11.8,11.8,11.8h23.78c6.51,0,11.8-5.28,11.8-11.8v-7.5c31.11-14.12,39.52,11.12,41.13,17.62h-.06v375.69l-58.27-34.68c-64.23-38.23-104.13-108.41-104.13-183.16v-199.34H0v199.34c0,92.54,49.4,179.43,128.92,226.76l134.98,80.34v-464.88c1.08-45.7,54.92-32.49,71.04-16.37Z"/><rect class="cls-1" x="385.82" y="260.35" width="29.24" height="29.24"/><rect class="cls-1" x="430.37" y="260.35" width="29.24" height="29.24"/><rect class="cls-1" x="385.82" y="302.12" width="29.24" height="29.24"/><rect class="cls-1" x="430.37" y="302.12" width="29.24" height="29.24"/></svg>