<svg id="Layer_1" data-name="Layer 1" xmlns="http://www.w3.org/2000/svg" viewBox="0 0 991.07 930"><defs><style>.cls-1{fill:#762124;}.cls-2{fill:#313a4c;}</style></defs><path class="cls-1" d="M721.88,423.67l-161-47.47V274.88H510.12V735.16L560.86,705V429.11l156.46,46.13c-5.85,27.9-17.49,53-35.76,78-3.47,4.76-7.45,9.62-12.53,15.33l-39.11,44h67.91L707,602.35c6.1-6.85,11.2-13.11,15.58-19.12,34.18-46.78,50.1-95.92,50.1-154.69V229.2H721.88Z"/><polygon class="cls-1" points="270.32 188.99 496.16 74.95 547.68 100.95 547.68 44.11 496.16 18.1 219.58 157.76 219.58 211.43 270.32 211.43 270.32 188.99"/><polygon class="cls-2" points="620.08 80.67 620.08 15.31 583.88 0 583.88 62.39 583.88 118.34 583.88 119.23 722 188.99 722 211.43 772.75 211.43 772.75 157.76 620.08 80.67"/><path class="cls-2" d="M553.25,254.4c0-47.37-59.22-59.22-59.22-59.22H420l-8,8A23.38,23.38,0,0,1,395.52,210h-5.13v-4.85a11.79,11.79,0,0,0-11.79-11.79H354.81A11.79,11.79,0,0,0,343,205.14v55.43a11.79,11.79,0,0,0,11.79,11.8H378.6a11.79,11.79,0,0,0,11.79-11.8v-7.5c31.11-14.12,39.52,11.12,41.13,17.63h-.06V646.38L373.19,611.7A214.14,214.14,0,0,1,269.06,428.54V229.2H218.31V428.54A265.12,265.12,0,0,0,347.23,655.31l135,80.34V270.77C483.29,225.07,537.12,238.28,553.25,254.4Z"/><path class="cls-2" d="M16,928.64,0,833.48H14.68l10.74,72.59h.27L36.3,833.48H50.71l-16,95.16Z"/><path class="cls-2" d="M105.5,928.64,102.37,907H86.47l-3.13,21.62H68.93l16.45-95.16h18.35l16.45,95.16ZM88.37,894h12.1l-5.85-40.1h-.41Z"/><path class="cls-2" d="M179.59,928.64l-18.9-63.08h-.27v63.08H146.83V833.48h16l17,56.69h.27V833.48h13.6v95.16Z"/><path class="cls-2" d="M269.18,855v6.52l-13.87.68v-5.71c0-7.61-2.85-11-8.42-11s-8.43,3.4-8.43,9.65V907c0,6.26,2.72,9.66,8.29,9.66s8.29-3.4,8.29-11V889.35h-8.15V876h22.29v31.13c0,14.41-8.29,22.84-22.7,22.84s-22.43-8.43-22.43-22.84V855c0-14.41,8.15-22.84,22.43-22.84S269.18,840.55,269.18,855Z"/><path class="cls-2" d="M342.86,907.3c0,15-8.56,22.7-22.43,22.7-13.59,0-22.16-7.75-22.16-22.7V833.48h13.87v73.41c0,6.93,3.13,9.52,8.16,9.52s8.15-2.59,8.15-9.52V833.48h14.41Z"/><path class="cls-2" d="M404.72,928.64,401.59,907h-15.9l-3.13,21.62H368.15l16.45-95.16H403l16.45,95.16ZM387.59,894h12.1l-5.84-40.1h-.41Z"/><path class="cls-2" d="M465.76,888.4H459.1v40.24H444.69V833.48h20.8c15.5,0,23.93,8.42,23.93,24.06v6.8c0,10.06-3.54,17.13-10.2,20.93l13.19,43.37H477.18Zm-6.66-13.32H465c6.93,0,10.06-3.67,10.06-11.7v-4.89c0-8-3.13-11.69-10.06-11.69H459.1Z"/><path class="cls-2" d="M539.85,833.48c15.5,0,23.93,8.42,23.93,24.06v47c0,15.63-8.43,24.06-23.93,24.06H519.19V833.48Zm-6.25,81.84h5.71c6.93,0,10.06-3.67,10.06-11.69V858.49c0-8-3.13-11.69-10.06-11.69H533.6Z"/><path class="cls-1" d="M667.78,928.64V887.18H650.65v41.46H636.24V833.48h14.41v40.1h17.13v-40.1h14.41v95.16Z"/><path class="cls-1" d="M759,856.18v49.76c0,14.95-8.83,24.06-23.24,24.06s-23.25-9.11-23.25-24.06V856.18c0-14.95,8.84-24.06,23.25-24.06S759,841.23,759,856.18Zm-32.08.14V905.8c0,7.07,3.13,10.88,8.84,10.88s8.83-3.81,8.83-10.88V856.32c0-7.07-3.12-10.88-8.83-10.88S726.92,849.25,726.92,856.32Z"/><path class="cls-1" d="M836,928.64V862.57h-.27l-12,52.48h-8.56l-12-52.48h-.28v66.07H789.32V833.48h18.9l11.28,51.11h.27l11.15-51.11h19.44v95.16Z"/><path class="cls-1" d="M896.58,846.8v26.92h21.07V887H896.58v28.28h26.1v13.32H882.17V833.48h40.51V846.8Z"/><path class="cls-1" d="M989.43,853.46v2.45l-13.86,1.36v-3.54c0-5.44-2.59-8.29-7.34-8.29s-7.35,2.85-7.35,8.29V855c0,5.57,2.45,10.33,12.1,18.49,13.19,11.14,18.09,19,18.09,30.45v4.76c0,13.59-8,21.34-22.3,21.34s-22.3-7.75-22.3-21.34v-6.39l13.87-1.36v6.79q0,9,8.16,9t8.15-9v-3.12c0-6-2.85-10.74-12.5-18.9-13.19-11.15-17.68-19-17.68-30.18v-2c0-13.59,7.75-21.34,21.48-21.34S989.43,839.87,989.43,853.46Z"/><rect class="cls-1" x="604.13" y="260.35" width="29.24" height="29.24"/><rect class="cls-1" x="648.68" y="260.35" width="29.24" height="29.24"/><rect class="cls-1" x="604.13" y="302.12" width="29.24" height="29.24"/><rect class="cls-1" x="648.68" y="302.12" width="29.24" height="29.24"/></svg>